<svg width="21" height="27" viewBox="0 0 21 27" fill="none" xmlns="http://www.w3.org/2000/svg">
    <path d="M10.5003 0.583496C6.9392 0.583496 4.04199 3.4807 4.04199 7.04183V9.62516H2.75033C1.32562 9.62516 0.166992 10.7838 0.166992 12.2085V23.8335C0.166992 25.2582 1.32562 26.4168 2.75033 26.4168H18.2503C19.675 26.4168 20.8337 25.2582 20.8337 23.8335V12.2085C20.8337 10.7838 19.675 9.62516 18.2503 9.62516H16.9587V7.04183C16.9587 3.4807 14.0615 0.583496 10.5003 0.583496ZM6.62533 7.04183C6.62533 4.90541 8.36391 3.16683 10.5003 3.16683C12.6367 3.16683 14.3753 4.90541 14.3753 7.04183V9.62516H6.62533V7.04183ZM18.2529 23.8335H11.792V20.8911C12.5605 20.4429 13.0837 19.6188 13.0837 18.6668C13.0837 17.2421 11.925 16.0835 10.5003 16.0835C9.07562 16.0835 7.91699 17.2421 7.91699 18.6668C7.91699 19.6175 8.44012 20.4429 9.20866 20.8911V23.8335H2.75033V12.2085H18.2503L18.2529 23.8335Z" fill="#6A8BFF"/>
</svg>
