<svg width="21" height="24" viewBox="0 0 21 24" fill="none" xmlns="http://www.w3.org/2000/svg">
    <path d="M1.05473 22.9997C1.15132 22.1198 1.37511 21.256 1.7209 20.4347C2.197 19.3039 2.89528 18.2754 3.77668 17.4083C4.65812 16.5412 5.70541 15.8525 6.85919 15.3823C8.013 14.9121 9.25019 14.6699 10.5 14.6699C11.7498 14.6699 12.987 14.9121 14.1408 15.3823C15.2946 15.8525 16.3419 16.5412 17.2233 17.4083C18.1047 18.2754 18.803 19.3039 19.2791 20.4347C19.6249 21.256 19.8487 22.1198 19.9453 22.9997H1.05473Z" stroke="#6A8BFF" stroke-width="2"/>
    <path d="M14.0355 9.53553C13.0979 10.4732 11.8261 11 10.5 11C9.17392 11 7.90215 10.4732 6.96447 9.53553C6.02678 8.59785 5.5 7.32608 5.5 6C5.5 4.67392 6.02678 3.40215 6.96447 2.46447C7.90215 1.52678 9.17392 1 10.5 1C11.8261 1 13.0979 1.52678 14.0355 2.46447C14.9732 3.40215 15.5 4.67392 15.5 6C15.5 7.32608 14.9732 8.59785 14.0355 9.53553Z" stroke="#6A8BFF" stroke-width="2"/>
</svg>
