<svg width="25" height="25" viewBox="0 0 25 25" fill="none" xmlns="http://www.w3.org/2000/svg">
    <path d="M10.1674 14.9655C9.56844 14.3676 9.20386 13.5551 9.20386 12.6436C9.20386 10.8176 10.6747 9.3457 12.4997 9.3457C13.4028 9.3457 14.2341 9.71133 14.8226 10.3092" stroke="#6A8BFF" stroke-width="1.5" stroke-linecap="round" stroke-linejoin="round"/>
    <path d="M6.93197 18.2002C5.27884 16.9023 3.87884 15.0065 2.86426 12.6429C3.88926 10.269 5.29863 8.36273 6.96217 7.05439C8.6153 5.74606 10.5226 5.03564 12.4997 5.03564C14.4882 5.03564 16.3945 5.75648 18.058 7.07419" stroke="#6A8BFF" stroke-width="1.5" stroke-linecap="round" stroke-linejoin="round"/>
    <path d="M20.1647 9C20.8654 9.96229 21.4816 11.073 22 12.3122C19.9966 17.11 16.4563 20 12.5788 20C11.6999 20 10.8331 19.8526 10 19.5652" stroke="#6A8BFF" stroke-width="1.5" stroke-linecap="round" stroke-linejoin="round"/>
    <path d="M14.5397 10.0301C15.1366 10.628 15.5 11.4405 15.5 12.352C15.5 14.178 14.0341 15.6499 12.2152 15.6499C11.3151 15.6499 10.4866 15.2843 9.9 14.6864" stroke="#6A8BFF" stroke-width="1.5" stroke-linecap="round" stroke-linejoin="round"/>
</svg>
