<svg width="25" height="25" viewBox="0 0 25 25" fill="none" xmlns="http://www.w3.org/2000/svg">
    <path d="M10.1672 14.9655C9.5682 14.3676 9.20361 13.5551 9.20361 12.6436C9.20361 10.8176 10.6744 9.3457 12.4994 9.3457C13.4026 9.3457 14.2338 9.71133 14.8224 10.3092" stroke="#6A8BFF" stroke-width="1.5" stroke-linecap="round" stroke-linejoin="round"/>
    <path d="M15.7345 13.228C15.4928 14.5718 14.4345 15.6322 13.0918 15.8759" stroke="#6A8BFF" stroke-width="1.5" stroke-linecap="round" stroke-linejoin="round"/>
    <path d="M6.93197 18.2002C5.27884 16.9023 3.87884 15.0065 2.86426 12.6429C3.88926 10.269 5.29863 8.36273 6.96217 7.05439C8.6153 5.74606 10.5226 5.03564 12.4997 5.03564C14.4882 5.03564 16.3945 5.75648 18.058 7.07419" stroke="#6A8BFF" stroke-width="1.5" stroke-linecap="round" stroke-linejoin="round"/>
    <path d="M20.2581 9.36572C20.9748 10.3178 21.605 11.4168 22.1352 12.6428C20.0863 17.3897 16.4654 20.2491 12.4998 20.2491C11.6008 20.2491 10.7144 20.1032 9.8623 19.8188" stroke="#6A8BFF" stroke-width="1.5" stroke-linecap="round" stroke-linejoin="round"/>
    <path d="M20.7159 4.42676L4.28467 20.858" stroke="#6A8BFF" stroke-width="1.5" stroke-linecap="round" stroke-linejoin="round"/>
</svg>
