<svg width="33" height="33" viewBox="0 0 33 33" fill="none" xmlns="http://www.w3.org/2000/svg">
<path d="M21 27.6527C19.1815 28.5166 17.1472 29 15 29C7.26801 29 1 22.732 1 15C1 7.26801 7.26801 1 15 1C22.732 1 29 7.26801 29 15C29 16.9525 28.6003 18.8116 27.8783 20.5" stroke="#6A8BFF" stroke-width="2" stroke-linecap="round"/>
<path d="M21.1884 27.6272L28.9022 29.4421C29.2637 29.5272 29.5885 29.2024 29.5035 28.8409L27.6885 21.1272" stroke="#6A8BFF" stroke-width="2" stroke-linecap="round"/>
<path d="M20.6013 15.74H16.5613V19.88H14.4413V15.74H10.4013V13.82H14.4413V9.68H16.5613V13.82H20.6013V15.74Z" fill="#6A8BFF"/>
</svg>
