<svg width="33" height="33" viewBox="0 0 33 33" fill="none" xmlns="http://www.w3.org/2000/svg">
    <path d="M19.8025 11.9546L17.9142 10.0398L14.852 13.1449L11.7897 10.0398L9.90137 11.9546L12.9636 15.0597L9.90137 18.1649L11.7897 20.0797L14.852 16.9745L17.9142 20.0797L19.8025 18.1649L16.7403 15.0597L19.8025 11.9546Z" fill="#6A8BFF"/>
    <path fill-rule="evenodd" clip-rule="evenodd" d="M14.8518 2.00798C7.74302 2.00798 1.98024 7.85149 1.98024 15.0598C1.98024 22.2682 7.74302 28.1117 14.8518 28.1117C21.9605 28.1117 27.7233 22.2682 27.7233 15.0598C27.7233 7.85149 21.9605 2.00798 14.8518 2.00798ZM0 15.0598C0 6.74252 6.64936 0 14.8518 0C23.0542 0 29.7035 6.74252 29.7035 15.0598C29.7035 23.3772 23.0542 30.1197 14.8518 30.1197C6.64936 30.1197 0 23.3772 0 15.0598Z" fill="#6A8BFF"/>
</svg>
