<svg width="33" height="33" viewBox="0 0 33 33" fill="none" xmlns="http://www.w3.org/2000/svg">
<path d="M21 27.6527C19.1815 28.5166 17.1472 29 15 29C7.26801 29 1 22.732 1 15C1 7.26801 7.26801 1 15 1C22.732 1 29 7.26801 29 15C29 16.9525 28.6003 18.8116 27.8783 20.5" stroke="#6A8BFF" stroke-width="2" stroke-linecap="round"/>
<path d="M21.1884 27.6272L28.9022 29.4421C29.2637 29.5272 29.5885 29.2024 29.5035 28.8409L27.6885 21.1272" stroke="#6A8BFF" stroke-width="2" stroke-linecap="round"/>
<path d="M15.3591 7.9C16.7191 7.9 17.8058 8.27333 18.6191 9.02C19.4458 9.76667 19.8591 10.7867 19.8591 12.08C19.8591 13.4267 19.4325 14.44 18.5791 15.12C17.7258 15.8 16.5925 16.14 15.1791 16.14L15.0991 17.72H13.1191L13.0191 14.58H13.6791C14.9725 14.58 15.9591 14.4067 16.6391 14.06C17.3325 13.7133 17.6791 13.0533 17.6791 12.08C17.6791 11.3733 17.4725 10.82 17.0591 10.42C16.6591 10.02 16.0991 9.82 15.3791 9.82C14.6591 9.82 14.0925 10.0133 13.6791 10.4C13.2658 10.7867 13.0591 11.3267 13.0591 12.02H10.9191C10.9191 11.22 11.0991 10.5067 11.4591 9.88C11.8191 9.25333 12.3325 8.76667 12.9991 8.42C13.6791 8.07333 14.4658 7.9 15.3591 7.9ZM14.0791 22.14C13.6658 22.14 13.3191 22 13.0391 21.72C12.7591 21.44 12.6191 21.0933 12.6191 20.68C12.6191 20.2667 12.7591 19.92 13.0391 19.64C13.3191 19.36 13.6658 19.22 14.0791 19.22C14.4791 19.22 14.8191 19.36 15.0991 19.64C15.3791 19.92 15.5191 20.2667 15.5191 20.68C15.5191 21.0933 15.3791 21.44 15.0991 21.72C14.8191 22 14.4791 22.14 14.0791 22.14Z" fill="#6A8BFF"/>
</svg>
