<svg width="31" height="25" viewBox="0 0 31 25" fill="none" xmlns="http://www.w3.org/2000/svg">
<path d="M30 23.5C30 11.6832 18.3636 7.94722 12.2789 7.51761C12.1201 7.5064 12 7.37542 12 7.2162V1.7011C12 1.43718 11.6838 1.30186 11.4929 1.48409L1.22734 11.283C1.10353 11.4012 1.10353 11.5988 1.22734 11.717L11.4929 21.5159C11.6838 21.6981 12 21.5628 12 21.2989V16.3C12 16.1343 12.1343 16 12.3 16H15" stroke="#6A8BFF" stroke-width="2"/>
<path d="M15 15H14V17H15V15ZM29.0194 23.6961C29.1277 24.2377 29.6546 24.5889 30.1961 24.4806C30.7377 24.3723 31.0889 23.8454 30.9806 23.3039L29.0194 23.6961ZM15 17C25.5011 17 28.6439 21.8183 29.0194 23.6961L30.9806 23.3039C30.3561 20.1817 26.0989 15 15 15V17Z" fill="#6A8BFF"/>
</svg>
