<svg width="21" height="21" viewBox="0 0 21 21" fill="none" xmlns="http://www.w3.org/2000/svg">
<path fill-rule="evenodd" clip-rule="evenodd" d="M8.09235 3.45769C8.28919 3.6546 8.39977 3.92162 8.39977 4.20004C8.39977 4.47847 8.28919 4.74549 8.09235 4.94239L5.6847 7.35004H11.55C13.4993 7.35004 15.3688 8.12442 16.7472 9.50281C18.1256 10.8812 18.9 12.7507 18.9 14.7V16.8C18.9 17.0785 18.7894 17.3456 18.5925 17.5425C18.3955 17.7394 18.1285 17.85 17.85 17.85C17.5715 17.85 17.3044 17.7394 17.1075 17.5425C16.9106 17.3456 16.8 17.0785 16.8 16.8V14.7C16.8 13.3077 16.2469 11.9723 15.2623 10.9877C14.2777 10.0032 12.9424 9.45004 11.55 9.45004H5.6847L8.09235 11.8577C8.19263 11.9546 8.27262 12.0704 8.32765 12.1985C8.38268 12.3266 8.41165 12.4644 8.41286 12.6038C8.41407 12.7432 8.3875 12.8815 8.33471 13.0105C8.28191 13.1396 8.20395 13.2568 8.10536 13.3554C8.00677 13.454 7.88954 13.532 7.7605 13.5848C7.63146 13.6376 7.49319 13.6641 7.35377 13.6629C7.21436 13.6617 7.07658 13.6327 6.94847 13.5777C6.82037 13.5227 6.70451 13.4427 6.60765 13.3424L2.40765 9.14239C2.2108 8.94549 2.10022 8.67847 2.10022 8.40004C2.10022 8.12162 2.2108 7.8546 2.40765 7.65769L6.60765 3.45769C6.80455 3.26085 7.07157 3.15027 7.35 3.15027C7.62842 3.15027 7.89544 3.26085 8.09235 3.45769V3.45769Z" fill="black"/>
</svg>
