<svg width="30" height="30" viewBox="0 0 30 30" fill="none" xmlns="http://www.w3.org/2000/svg">
<path d="M29.4655 10.8844L15.4567 3.61244C15.1704 3.46382 14.8297 3.46382 14.5433 3.61244L0.534574 10.8844C0.206185 11.0549 7.93019e-05 11.3941 0 11.7641C0 11.7641 0 11.7641 0 11.7642V15.5599C0 16.1072 0.443774 16.5512 0.991274 16.5512C1.53877 16.5512 1.98255 16.1072 1.98255 15.5599V13.3956L4.10728 14.4986V22.3925C4.10728 22.5992 4.17192 22.8008 4.2923 22.9691C4.39539 23.1132 6.90926 26.4983 15 26.4983C23.0908 26.4983 25.6045 23.1132 25.7076 22.9691C25.8278 22.8009 25.8924 22.5992 25.8924 22.3925V14.4986L29.4655 12.6439C29.7939 12.4734 30 12.1341 30 11.7641C30 11.3941 29.7938 11.0549 29.4655 10.8844ZM23.9098 22.0098C23.2516 22.6425 20.8109 24.5159 15 24.5159C9.18919 24.5159 6.74836 22.6425 6.08999 22.0098V15.5279L14.5433 19.916C14.6866 19.9904 14.8433 20.0275 15 20.0275C15.1568 20.0275 15.3137 19.9903 15.4567 19.916L23.9098 15.5279V22.0098ZM15 17.9194L3.14289 11.7643L15 5.6091L26.8572 11.7643L15 17.9194Z" fill="#6A8BFF"/>
<path d="M0.991274 17.4248C0.443774 17.4248 0 17.8687 0 18.4161V19.6149C0 20.1623 0.443774 20.6062 0.991274 20.6062C1.53877 20.6062 1.98255 20.1623 1.98255 19.6149V18.4161C1.98255 17.8687 1.53877 17.4248 0.991274 17.4248Z" fill="#6A8BFF"/>
</svg>
